<svg width="24" height="24" viewBox="0 0 24 24" fill="none" xmlns="http://www.w3.org/2000/svg">
<g clip-path="url(#clip0_3661_373)">
<path d="M23.986 20.1931C23.4772 18.3034 21.8318 17.4794 21.1893 17.224L20.1462 9.09923C19.9814 7.81669 19.5101 6.57689 18.7835 5.51386C18.076 4.47891 17.1246 3.60595 16.0324 2.98955C15.6167 2.75475 15.1771 2.55525 14.7258 2.39667C13.9787 2.13342 13.2009 1.98141 12.4082 1.9425V0.871078C12.4082 0.645656 12.2254 0.462891 12 0.462891C11.7746 0.462891 11.5918 0.645656 11.5918 0.871078V1.9425C10.7995 1.98145 10.0216 2.13342 9.27437 2.39653C8.82287 2.55516 8.38319 2.7547 7.96783 2.98931C7.47231 3.26869 7.00356 3.60159 6.57442 3.97898C6.39315 4.13855 6.21704 4.30791 6.05097 4.48233C5.89553 4.64559 5.90186 4.90392 6.06512 5.05945C6.22834 5.21489 6.48672 5.20861 6.6422 5.0453C6.79183 4.88817 6.9505 4.73559 7.11372 4.59183C7.39839 4.34142 7.70261 4.113 8.02155 3.90923C8.76095 5.01759 10.2704 5.71444 11.9996 5.71444C13.7294 5.71444 15.239 5.01778 15.9781 3.90961C17.8127 5.08373 19.0577 7.0342 19.3364 9.20325L20.3658 17.2215C19.617 17.4177 18.8554 17.589 18.097 17.7315C17.8754 17.7732 17.7296 17.9866 17.7713 18.2081C17.8081 18.4042 17.9795 18.541 18.172 18.541C18.197 18.541 18.2224 18.5387 18.2478 18.5339C19.1025 18.3733 19.9609 18.1767 20.8017 17.9502C21.1628 18.0833 22.3997 18.6167 22.9929 19.8531C22.6886 19.839 22.3836 19.8318 22.081 19.8318C18.5125 19.8318 15.0326 20.8051 11.9997 22.6492C8.96729 20.8051 5.48744 19.8318 1.91833 19.8318C1.61612 19.8318 1.31158 19.8389 1.00759 19.853C1.60084 18.6228 2.8405 18.0841 3.19961 17.9501C6.08767 18.7288 9.02444 19.1198 11.9771 19.1198C13.642 19.1198 15.3118 18.9958 16.9808 18.7472C17.2038 18.714 17.3576 18.5063 17.3245 18.2834C17.2913 18.0604 17.0835 17.9062 16.8606 17.9398C12.4192 18.6011 7.97129 18.359 3.63404 17.2213L4.66342 9.2032C4.8145 8.02561 5.25179 6.8903 5.92792 5.91984C6.05678 5.73492 6.01136 5.48048 5.82634 5.35162C5.64142 5.22262 5.38694 5.26814 5.25812 5.45316C4.50709 6.531 4.02142 7.79184 3.8537 9.09928L2.81073 17.224C2.16826 17.4794 0.522857 18.3034 0.0140294 20.1931C-0.0204237 20.3212 0.00943565 20.458 0.0941856 20.5601C0.178983 20.6621 0.308076 20.7163 0.44017 20.7062C0.930154 20.6677 1.4275 20.6481 1.91842 20.6481C5.41928 20.6481 8.83047 21.6255 11.7831 23.4747C11.8494 23.5162 11.9245 23.5369 11.9997 23.5369C12.0749 23.5369 12.1501 23.5162 12.2163 23.4747C15.1696 21.6255 18.5807 20.6481 22.081 20.6481C22.5723 20.6481 23.0698 20.6677 23.5598 20.7062C23.6916 20.7161 23.821 20.662 23.9057 20.5601C23.9906 20.458 24.0205 20.3212 23.986 20.1931ZM11.997 2.74837L12 2.74852L12.0031 2.74837C12.6439 2.74861 13.2757 2.83078 13.8887 2.99269C13.4966 3.29817 12.8329 3.53752 11.9997 3.53752C11.1669 3.53752 10.5034 3.29822 10.1114 2.99273C10.7245 2.83088 11.3564 2.7487 11.997 2.74837ZM11.9997 4.89811C10.569 4.89811 9.33498 4.36205 8.73545 3.50733C8.90219 3.4252 9.07215 3.34894 9.24484 3.27966C9.76506 3.9337 10.8145 4.35384 11.9997 4.35384C13.1853 4.35384 14.2349 3.93366 14.7551 3.27966C14.9278 3.34898 15.0978 3.42525 15.2646 3.50742C14.6655 4.36205 13.4312 4.89811 11.9997 4.89811Z" fill="white"/>
<path d="M16.2281 11.8852L15.2447 10.9018V9.51114C15.2447 9.28572 15.062 9.10296 14.8365 9.10296H13.4458L12.4624 8.11957C12.3031 7.96014 12.0446 7.96014 11.8852 8.11957L10.9018 9.10296H9.51114C9.28572 9.10296 9.10296 9.28572 9.10296 9.51114V10.9019L8.11957 11.8853C7.96014 12.0447 7.96014 12.3031 8.11957 12.4625L9.10296 13.4459V14.8366C9.10296 15.062 9.28572 15.2448 9.51114 15.2448H10.9018L11.8852 16.2281C11.9649 16.3078 12.0694 16.3477 12.1738 16.3477C12.2783 16.3477 12.3828 16.3079 12.4624 16.2281L13.4458 15.2448H14.8365C15.0619 15.2448 15.2447 15.062 15.2447 14.8366V13.4458L16.2281 12.4624C16.3875 12.303 16.3875 12.0446 16.2281 11.8852ZM14.548 12.9881C14.4714 13.0646 14.4284 13.1685 14.4284 13.2767V14.4283H13.2768C13.1686 14.4283 13.0648 14.4713 12.9882 14.5479L12.174 15.3621L11.3597 14.5479C11.2831 14.4713 11.1793 14.4283 11.0711 14.4283H9.91947V13.2767C9.91947 13.1685 9.87649 13.0646 9.79989 12.9881L8.98563 12.1738L9.79989 11.3596C9.87649 11.2831 9.91947 11.1792 9.91947 11.071V9.91938H11.0711C11.1793 9.91938 11.2831 9.87639 11.3597 9.7998L12.174 8.98554L12.9882 9.7998C13.0647 9.87639 13.1686 9.91938 13.2768 9.91938H14.4284V11.071C14.4284 11.1792 14.4714 11.2831 14.548 11.3596L15.3623 12.1738L14.548 12.9881Z" fill="white"/>
<path d="M12.1738 10.2903C11.1353 10.2903 10.2903 11.1353 10.2903 12.1738C10.2903 13.2124 11.1353 14.0573 12.1738 14.0573C13.2124 14.0573 14.0573 13.2124 14.0573 12.1738C14.0573 11.1352 13.2124 10.2903 12.1738 10.2903ZM12.1738 13.2411C11.5853 13.2411 11.1066 12.7624 11.1066 12.1739C11.1066 11.5853 11.5854 11.1067 12.1738 11.1067C12.7622 11.1067 13.241 11.5855 13.241 12.1739C13.241 12.7623 12.7623 13.2411 12.1738 13.2411Z" fill="white"/>
</g>
<defs>
<clipPath id="clip0_3661_373">
<rect width="24" height="24" fill="white"/>
</clipPath>
</defs>
</svg>
