<svg width="16" height="24" viewBox="0 0 16 24" fill="none" xmlns="http://www.w3.org/2000/svg">
<path d="M0 3.59277V14.9346H15.146V3.59277C14.5139 1.49659 13.9674 0.665644 11.6589 0H3.45188C1.17707 0.770162 0.609937 1.57461 0 3.59277Z" fill="white"/>
<path d="M2.01213 19.3851V16.3911H13.1427V19.3851C13.2815 20.8254 11.1094 24.0539 8.77499 23.9993H6.16847C3.95087 23.7731 1.81958 20.6101 2.01213 19.3851Z" fill="white"/>
<path d="M10.8801 4.14795C10.7021 4.06279 10.4914 4.08742 10.3377 4.21085C9.67892 4.74082 8.56545 4.74082 7.90666 4.21085C7.71908 4.06004 7.45197 4.06004 7.26439 4.21085C6.60561 4.74082 5.49214 4.74082 4.83335 4.21085C4.67991 4.0873 4.46882 4.06266 4.29099 4.14795C4.11318 4.2331 4 4.41268 4 4.60989V8.70762C4 10.3131 5.28692 11.6459 7.44246 12.2728C7.48923 12.2864 7.53738 12.2931 7.58553 12.2931C7.63368 12.2931 7.68183 12.2864 7.7286 12.2728C9.88415 11.6459 11.1711 10.3131 11.1711 8.70762V4.60989C11.171 4.41268 11.0579 4.2331 10.8801 4.14795V4.14795ZM5.02444 8.70764V8.19542H7.58553V5.23065C8.34498 5.67759 9.31339 5.7565 10.1466 5.46675V8.1954H7.58553V11.2458C5.97861 10.7415 5.02444 9.79959 5.02444 8.70764Z" fill="black"/>
<circle cx="5" cy="19" r="1" fill="black"/>
<circle cx="10" cy="19" r="1" fill="black"/>
</svg>
